
      <svg data-logo="logo" xmlns="http://www.w3.org/2000/svg" viewBox="0 0 272 36">
        <g id="logogram" transform="translate(0, 1) rotate(0) "><path d="M15.4992 0H36.5808L21.0816 22.9729H0L15.4992 0Z" fill="#007AFF"/><path d="M16.4224 25.102L10.4192 34H32.5008L48 11.0271H31.7024L22.2064 25.102H16.4224Z" fill="#312ECB"/></g>
        <g id="logotype" transform="translate(54, 5)"><path fill="#111111" d="M12.41 26L6.81 26L15.26 1.26L21.90 1.26L30.57 26L24.94 26L20.97 14.06Q20.26 11.76 19.52 9.01Q18.78 6.26 17.97 3.01L17.97 3.01L19.07 3.01Q18.29 6.28 17.60 9.04Q16.91 11.81 16.23 14.06L16.23 14.06L12.41 26ZM25.29 20.26L12.09 20.26L12.09 16.29L25.29 16.29L25.29 20.26ZM36.28 26L31.30 26L31.30 7.44L36.28 7.44L36.28 26ZM33.79 5.02L33.79 5.02Q32.66 5.02 31.86 4.27Q31.07 3.52 31.07 2.46L31.07 2.46Q31.07 1.40 31.86 0.65Q32.66-0.10 33.79-0.10L33.79-0.10Q34.92-0.10 35.72 0.64Q36.53 1.38 36.53 2.46L36.53 2.46Q36.53 3.52 35.72 4.27Q34.92 5.02 33.79 5.02ZM47.48 26.37L47.48 26.37Q44.51 26.37 42.31 25.45Q40.11 24.54 38.88 22.75Q37.66 20.95 37.59 18.33L37.59 18.33L42.52 18.33Q42.62 19.58 43.27 20.41Q43.91 21.25 44.99 21.67Q46.07 22.08 47.43 22.08L47.43 22.08Q48.79 22.08 49.80 21.69Q50.80 21.30 51.37 20.59Q51.93 19.87 51.93 18.93L51.93 18.93Q51.93 18.08 51.43 17.51Q50.92 16.94 49.97 16.52Q49.03 16.11 47.67 15.79L47.67 15.79L44.94 15.11Q41.81 14.35 40.03 12.71Q38.25 11.08 38.25 8.39L38.25 8.39Q38.25 6.14 39.46 4.47Q40.66 2.79 42.76 1.86Q44.86 0.93 47.55 0.93L47.55 0.93Q50.29 0.93 52.33 1.87Q54.37 2.81 55.52 4.48Q56.66 6.14 56.70 8.32L56.70 8.32L51.80 8.32Q51.67 6.83 50.53 6.01Q49.39 5.20 47.50 5.20L47.50 5.20Q46.22 5.20 45.31 5.56Q44.40 5.93 43.91 6.58Q43.43 7.22 43.43 8.05L43.43 8.05Q43.43 8.97 43.99 9.57Q44.54 10.18 45.45 10.55Q46.35 10.93 47.40 11.17L47.40 11.17L49.64 11.72Q51.20 12.07 52.55 12.67Q53.89 13.27 54.90 14.14Q55.92 15.01 56.47 16.21Q57.03 17.40 57.03 18.96L57.03 18.96Q57.03 21.20 55.90 22.87Q54.77 24.54 52.63 25.45Q50.49 26.37 47.48 26.37ZM63.34 26L58.36 26L58.36 7.44L62.97 7.44L63.22 12.05L62.85 12.05Q63.29 10.34 64.12 9.27Q64.96 8.19 66.09 7.67Q67.22 7.16 68.47 7.16L68.47 7.16Q70.47 7.16 71.70 8.43Q72.93 9.70 73.51 12.35L73.51 12.35L72.93 12.35Q73.35 10.58 74.28 9.42Q75.22 8.27 76.51 7.71Q77.80 7.16 79.21 7.16L79.21 7.16Q80.92 7.16 82.25 7.90Q83.59 8.65 84.36 10.05Q85.13 11.46 85.13 13.48L85.13 13.48L85.13 26L80.15 26L80.15 14.43Q80.15 12.85 79.30 12.09Q78.44 11.32 77.20 11.32L77.20 11.32Q76.27 11.32 75.58 11.73Q74.89 12.14 74.52 12.87Q74.14 13.60 74.14 14.58L74.14 14.58L74.14 26L69.33 26L69.33 14.30Q69.33 12.93 68.52 12.13Q67.72 11.32 66.44 11.32L66.44 11.32Q65.56 11.32 64.85 11.72Q64.15 12.12 63.74 12.89Q63.34 13.67 63.34 14.78L63.34 14.78L63.34 26ZM92.35 26.37L92.35 26.37Q90.59 26.37 89.19 25.74Q87.79 25.12 86.98 23.88Q86.18 22.65 86.18 20.80L86.18 20.80Q86.18 19.26 86.75 18.21Q87.32 17.17 88.31 16.54Q89.30 15.91 90.55 15.57Q91.81 15.24 93.18 15.11L93.18 15.11Q94.79 14.94 95.78 14.80Q96.77 14.66 97.23 14.35Q97.68 14.05 97.68 13.45L97.68 13.45L97.68 13.37Q97.68 12.57 97.35 12.02Q97.02 11.47 96.37 11.18Q95.72 10.89 94.78 10.89L94.78 10.89Q93.81 10.89 93.10 11.18Q92.39 11.47 91.94 11.96Q91.49 12.44 91.27 13.03L91.27 13.03L86.71 12.27Q87.19 10.66 88.30 9.53Q89.41 8.40 91.07 7.80Q92.72 7.21 94.78 7.21L94.78 7.21Q96.29 7.21 97.70 7.56Q99.11 7.92 100.23 8.67Q101.35 9.42 102.01 10.61Q102.66 11.81 102.66 13.50L102.66 13.50L102.66 26L97.95 26L97.95 23.43L97.78 23.43Q97.33 24.29 96.59 24.95Q95.84 25.60 94.79 25.98Q93.73 26.37 92.35 26.37ZM93.76 22.86L93.76 22.86Q94.94 22.86 95.83 22.40Q96.72 21.93 97.22 21.14Q97.72 20.34 97.72 19.36L97.72 19.36L97.72 17.35Q97.50 17.52 97.05 17.65Q96.60 17.78 96.06 17.88Q95.51 17.98 94.98 18.06Q94.45 18.15 94.03 18.20L94.03 18.20Q93.12 18.33 92.42 18.63Q91.72 18.93 91.34 19.42Q90.96 19.91 90.96 20.67L90.96 20.67Q90.96 21.38 91.32 21.87Q91.69 22.36 92.31 22.61Q92.93 22.86 93.76 22.86ZM109.68 26L104.70 26L104.70 7.44L109.52 7.44L109.52 10.68L109.72 10.68Q110.23 8.95 111.43 8.07Q112.64 7.19 114.20 7.19L114.20 7.19Q114.58 7.19 115.02 7.23Q115.46 7.27 115.81 7.36L115.81 7.36L115.81 11.81Q115.48 11.69 114.85 11.62Q114.22 11.56 113.65 11.56L113.65 11.56Q112.52 11.56 111.61 12.05Q110.70 12.54 110.19 13.41Q109.68 14.28 109.68 15.44L109.68 15.44L109.68 26ZM114.55 7.44L125.55 7.44L125.55 11.24L114.55 11.24L114.55 7.44ZM117.10 21.00L117.10 3.02L122.08 3.02L122.08 20.57Q122.08 21.45 122.47 21.87Q122.86 22.30 123.78 22.30L123.78 22.30Q124.06 22.30 124.57 22.22Q125.09 22.15 125.35 22.08L125.35 22.08L126.07 25.82Q125.24 26.07 124.42 26.17Q123.59 26.27 122.85 26.27L122.85 26.27Q120.06 26.27 118.58 24.90Q117.10 23.54 117.10 21.00L117.10 21.00ZM133.27 5.46L125.70 5.46L125.70 1.26L145.90 1.26L145.90 5.46L138.35 5.46L138.35 26L133.27 26L133.27 5.46ZM152.04 26L147.06 26L147.06 7.44L151.88 7.44L151.88 10.68L152.08 10.68Q152.59 8.95 153.80 8.07Q155.00 7.19 156.56 7.19L156.56 7.19Q156.94 7.19 157.38 7.23Q157.82 7.27 158.17 7.36L158.17 7.36L158.17 11.81Q157.84 11.69 157.21 11.62Q156.58 11.56 156.01 11.56L156.01 11.56Q154.88 11.56 153.97 12.05Q153.06 12.54 152.55 13.41Q152.04 14.28 152.04 15.44L152.04 15.44L152.04 26ZM163.88 26.37L163.88 26.37Q162.12 26.37 160.72 25.74Q159.31 25.12 158.51 23.88Q157.70 22.65 157.70 20.80L157.70 20.80Q157.70 19.26 158.28 18.21Q158.85 17.17 159.84 16.54Q160.82 15.91 162.08 15.57Q163.33 15.24 164.71 15.11L164.71 15.11Q166.32 14.94 167.31 14.80Q168.30 14.66 168.75 14.35Q169.21 14.05 169.21 13.45L169.21 13.45L169.21 13.37Q169.21 12.57 168.88 12.02Q168.54 11.47 167.90 11.18Q167.25 10.89 166.30 10.89L166.30 10.89Q165.34 10.89 164.63 11.18Q163.91 11.47 163.46 11.96Q163.02 12.44 162.80 13.03L162.80 13.03L158.24 12.27Q158.72 10.66 159.83 9.53Q160.94 8.40 162.59 7.80Q164.24 7.21 166.30 7.21L166.30 7.21Q167.81 7.21 169.23 7.56Q170.64 7.92 171.76 8.67Q172.88 9.42 173.53 10.61Q174.19 11.81 174.19 13.50L174.19 13.50L174.19 26L169.47 26L169.47 23.43L169.31 23.43Q168.86 24.29 168.11 24.95Q167.37 25.60 166.31 25.98Q165.26 26.37 163.88 26.37ZM165.29 22.86L165.29 22.86Q166.47 22.86 167.36 22.40Q168.25 21.93 168.74 21.14Q169.24 20.34 169.24 19.36L169.24 19.36L169.24 17.35Q169.03 17.52 168.58 17.65Q168.13 17.78 167.58 17.88Q167.03 17.98 166.50 18.06Q165.97 18.15 165.56 18.20L165.56 18.20Q164.64 18.33 163.95 18.63Q163.25 18.93 162.87 19.42Q162.49 19.91 162.49 20.67L162.49 20.67Q162.49 21.38 162.85 21.87Q163.22 22.36 163.84 22.61Q164.46 22.86 165.29 22.86ZM187.12 26L181.46 26L174.62 7.44L179.91 7.44L183.04 17.07Q183.60 18.88 184.02 20.72Q184.45 22.56 184.90 24.54L184.90 24.54L183.83 24.54Q184.26 22.56 184.68 20.72Q185.09 18.88 185.66 17.07L185.66 17.07L188.75 7.44L193.98 7.44L187.12 26ZM202.79 26.37L202.79 26.37Q199.95 26.37 197.89 25.20Q195.83 24.04 194.73 21.90Q193.63 19.76 193.63 16.82L193.63 16.82Q193.63 13.95 194.72 11.79Q195.82 9.63 197.83 8.42Q199.83 7.21 202.54 7.21L202.54 7.21Q204.37 7.21 205.94 7.79Q207.52 8.37 208.72 9.54Q209.91 10.71 210.58 12.47Q211.26 14.23 211.26 16.62L211.26 16.62L211.26 18.01L195.67 18.01L195.67 14.89L208.82 14.89L206.49 15.72Q206.49 14.28 206.05 13.21Q205.61 12.14 204.74 11.55Q203.87 10.96 202.57 10.96L202.57 10.96Q201.30 10.96 200.39 11.56Q199.49 12.15 199.02 13.18Q198.56 14.20 198.56 15.51L198.56 15.51L198.56 17.72Q198.56 19.33 199.10 20.42Q199.64 21.52 200.61 22.07Q201.58 22.61 202.87 22.61L202.87 22.61Q203.75 22.61 204.47 22.36Q205.18 22.12 205.69 21.63Q206.19 21.14 206.46 20.42L206.46 20.42L210.97 21.27Q210.53 22.80 209.41 23.95Q208.30 25.10 206.63 25.73Q204.96 26.37 202.79 26.37ZM212.45 1.26L217.43 1.26L217.43 26L212.45 26L212.45 1.26Z"/></g>
        
      </svg>
    